<svg width="24" height="24" viewBox="0 0 24 24" fill="none" xmlns="http://www.w3.org/2000/svg">
<path d="M5.88893 14.6784V19.0211C5.88893 19.2884 6.11518 19.3994 6.18557 19.4246C6.25596 19.4549 6.49226 19.5205 6.70342 19.3237L9.98867 16.1666C10.2684 15.8978 10.5385 15.6152 10.7414 15.2846C10.8369 15.1291 10.8765 15.0416 10.8765 15.0416C11.0776 14.633 11.0776 14.2396 10.8814 13.8462C10.5899 13.2611 9.84577 12.6659 8.72454 12.101L6.80901 13.1703C6.24089 13.4931 5.88893 14.0631 5.88893 14.6784Z" fill="#00378A"/>
<path d="M4 5.01948V9.57403C4 10.144 4.38211 10.6484 4.92512 10.8098C6.77532 11.3444 9.99809 12.4944 10.7774 14.1841C10.8779 14.406 10.9382 14.6229 10.9585 14.8498C11.4763 13.9066 11.7126 12.8222 11.602 11.7227C11.4511 10.1641 10.6265 8.74684 9.33948 7.844L4.74914 4.6311C4.66869 4.57058 4.57316 4.54031 4.47764 4.54031C4.39719 4.54031 4.3268 4.55545 4.25139 4.5958C4.10055 4.68154 4 4.8379 4 5.01948Z" fill="#0059FF"/>
<path d="M18.108 14.6784V19.0211C18.108 19.2884 17.8818 19.3994 17.8113 19.4246C17.741 19.4549 17.5046 19.5205 17.2935 19.3237L13.9318 16.0932C13.703 15.8732 13.4844 15.6406 13.3121 15.3741C13.1755 15.1631 13.1205 15.0416 13.1205 15.0416C12.9194 14.633 12.9194 14.2396 13.1154 13.8462C13.407 13.2611 14.1512 12.6659 15.2722 12.101L17.1879 13.1703C17.7611 13.4931 18.108 14.0631 18.108 14.6784Z" fill="#00378A"/>
<path d="M20 5.01916V9.5737C20 10.1437 19.6178 10.648 19.0747 10.8094C17.2246 11.3441 14.0019 12.4941 13.2226 14.1837C13.1219 14.4057 13.0616 14.6225 13.0415 14.8495C12.5237 13.9063 12.2874 12.8219 12.398 11.7224C12.5487 10.1638 13.3733 8.74653 14.6605 7.84369L19.2509 4.63078C19.3313 4.57026 19.4268 4.53999 19.5223 4.53999C19.6027 4.53999 19.6732 4.55513 19.7484 4.59548C19.8993 4.68122 20 4.83758 20 5.01916Z" fill="#0059FF"/>
</svg>
